<?xml version="1.0" standalone="no"?>
<!DOCTYPE svg PUBLIC "-//W3C//DTD SVG 20010904//EN"
 "http://www.w3.org/TR/2001/REC-SVG-20010904/DTD/svg10.dtd">
<svg version="1.0" xmlns="http://www.w3.org/2000/svg"
 width="600.000000pt" height="600.000000pt" viewBox="0 0 600.000000 600.000000"
 preserveAspectRatio="xMidYMid meet">
<metadata>
Created by potrace 1.11, written by Peter Selinger 2001-2013
</metadata>
<g transform="translate(0.000000,600.000000) scale(0.100000,-0.100000)"
fill="#000000" stroke="none">
<path d="M2195 4909 c-135 -21 -250 -77 -351 -172 -131 -122 -209 -262 -269
-482 l-22 -80 -54 -7 c-74 -9 -189 -50 -257 -90 -72 -43 -193 -156 -248 -234
-116 -163 -205 -424 -234 -694 -18 -160 -14 -150 -62 -150 l-41 0 6 -132 c32
-658 341 -1287 843 -1719 118 -101 316 -235 444 -299 l99 -50 3 -107 3 -108
945 0 945 0 3 112 3 112 81 41 c459 234 861 660 1072 1137 128 289 200 582
213 876 l6 137 -46 0 -47 0 0 48 c0 85 -22 224 -47 301 -43 134 -124 250 -227
330 -43 34 -56 49 -56 70 0 81 -71 271 -142 382 -82 128 -247 256 -386 299
-96 30 -224 43 -314 33 l-78 -9 -26 37 c-39 56 -123 132 -200 182 -148 94
-285 132 -464 131 -129 -1 -200 -16 -326 -70 l-82 -35 -65 46 c-180 126 -436
193 -622 164z m300 -167 c73 -23 153 -61 219 -102 l48 -31 -59 -62 c-33 -34
-78 -89 -100 -122 -51 -75 -123 -218 -123 -244 0 -32 32 -62 67 -63 43 -1 58
13 100 96 87 173 203 298 342 369 120 61 214 81 350 74 172 -9 307 -66 428
-181 l66 -62 -69 -27 c-147 -57 -332 -182 -486 -326 -66 -62 -78 -78 -78 -105
0 -40 29 -69 70 -69 21 0 46 14 92 57 295 267 551 386 802 374 198 -10 344
-90 462 -254 59 -82 134 -264 109 -264 -4 0 -35 8 -69 17 -96 27 -305 24 -421
-6 -234 -61 -410 -193 -502 -378 -45 -92 -54 -152 -24 -182 45 -45 99 -18 131
65 28 76 81 154 142 209 67 60 213 130 310 150 99 19 257 19 333 0 275 -70
444 -295 445 -592 l0 -83 -2095 0 c-2070 0 -2095 0 -2095 19 0 57 34 265 59
363 74 286 208 486 390 582 90 47 171 66 283 66 137 0 264 -37 378 -111 l62
-40 -69 -68 c-74 -73 -129 -165 -158 -263 -19 -69 -8 -106 38 -122 47 -17 76
8 103 85 45 137 134 235 251 280 80 30 234 37 321 15 132 -35 234 -102 274
-180 30 -61 47 -76 84 -76 23 0 38 7 53 26 27 34 26 47 -4 112 -88 190 -410
319 -668 268 l-79 -15 -61 49 c-106 86 -263 156 -390 175 -26 4 -49 10 -51 14
-7 11 54 184 90 254 88 173 207 277 367 322 71 20 250 13 332 -13z m2692
-2108 c20 -52 -206 -574 -366 -844 -86 -144 -108 -172 -134 -168 -41 6 -32 43
40 155 119 189 270 504 351 733 51 143 49 140 77 140 14 0 28 -7 32 -16z
m-2902 -334 c50 -24 75 -65 75 -120 0 -54 -30 -103 -74 -124 -46 -22 -81 -20
-126 5 -100 56 -91 198 15 245 41 18 62 17 110 -6z m1774 -7 c85 -63 75 -186
-20 -236 -92 -49 -208 33 -195 137 12 104 133 159 215 99z m-2019 -305 c23
-25 25 -40 9 -71 -16 -29 -28 -37 -60 -37 -32 0 -61 31 -61 65 0 59 71 86 112
43z m1752 5 c40 -36 8 -113 -47 -113 -32 0 -65 33 -65 65 0 54 71 85 112 48z"/>
</g>
</svg>
